<svg xmlns="http://www.w3.org/2000/svg" xmlns:xlink="http://www.w3.org/1999/xlink" width="500" zoomAndPan="magnify" viewBox="0 0 375 374.999991" height="500" preserveAspectRatio="xMidYMid meet" version="1.0"><defs><g/><clipPath id="61b7628a51"><path d="M 52.628906 95.25 L 93.128906 95.25 L 93.128906 135.75 L 52.628906 135.75 Z M 52.628906 95.25 " clip-rule="nonzero"/></clipPath></defs><g clip-path="url(#61b7628a51)"><path fill="#fad02c" d="M 93.128906 115.5 C 93.128906 116.164062 93.097656 116.824219 93.03125 117.484375 C 92.964844 118.144531 92.867188 118.800781 92.738281 119.449219 C 92.609375 120.101562 92.449219 120.742188 92.257812 121.378906 C 92.0625 122.011719 91.839844 122.636719 91.585938 123.25 C 91.332031 123.863281 91.050781 124.460938 90.738281 125.046875 C 90.425781 125.628906 90.085938 126.199219 89.714844 126.75 C 89.347656 127.300781 88.953125 127.832031 88.53125 128.347656 C 88.113281 128.859375 87.667969 129.351562 87.199219 129.820312 C 86.730469 130.289062 86.238281 130.734375 85.726562 131.152344 C 85.210938 131.574219 84.679688 131.96875 84.128906 132.335938 C 83.578125 132.707031 83.007812 133.046875 82.425781 133.359375 C 81.839844 133.671875 81.242188 133.953125 80.628906 134.207031 C 80.015625 134.460938 79.390625 134.683594 78.757812 134.878906 C 78.121094 135.070312 77.480469 135.230469 76.828125 135.359375 C 76.179688 135.488281 75.523438 135.585938 74.863281 135.652344 C 74.203125 135.71875 73.542969 135.75 72.878906 135.75 C 72.214844 135.75 71.554688 135.71875 70.894531 135.652344 C 70.234375 135.585938 69.578125 135.488281 68.929688 135.359375 C 68.277344 135.230469 67.636719 135.070312 67 134.878906 C 66.367188 134.683594 65.742188 134.460938 65.128906 134.207031 C 64.515625 133.953125 63.917969 133.671875 63.332031 133.359375 C 62.75 133.046875 62.179688 132.707031 61.628906 132.335938 C 61.078125 131.96875 60.546875 131.574219 60.03125 131.152344 C 59.519531 130.734375 59.027344 130.289062 58.558594 129.820312 C 58.089844 129.351562 57.644531 128.859375 57.226562 128.347656 C 56.804688 127.832031 56.410156 127.300781 56.042969 126.75 C 55.671875 126.199219 55.332031 125.628906 55.019531 125.046875 C 54.707031 124.460938 54.425781 123.863281 54.171875 123.25 C 53.917969 122.636719 53.691406 122.011719 53.5 121.378906 C 53.308594 120.742188 53.148438 120.101562 53.019531 119.449219 C 52.886719 118.800781 52.792969 118.144531 52.726562 117.484375 C 52.660156 116.824219 52.628906 116.164062 52.628906 115.5 C 52.628906 114.835938 52.660156 114.175781 52.726562 113.515625 C 52.792969 112.855469 52.886719 112.199219 53.019531 111.550781 C 53.148438 110.898438 53.308594 110.257812 53.5 109.621094 C 53.691406 108.988281 53.917969 108.363281 54.171875 107.75 C 54.425781 107.136719 54.707031 106.539062 55.019531 105.953125 C 55.332031 105.371094 55.671875 104.800781 56.042969 104.25 C 56.410156 103.699219 56.804688 103.167969 57.226562 102.652344 C 57.644531 102.140625 58.089844 101.648438 58.558594 101.179688 C 59.027344 100.710938 59.519531 100.265625 60.03125 99.847656 C 60.546875 99.425781 61.078125 99.03125 61.628906 98.664062 C 62.179688 98.292969 62.75 97.953125 63.332031 97.640625 C 63.917969 97.328125 64.515625 97.046875 65.128906 96.792969 C 65.742188 96.539062 66.367188 96.3125 67 96.121094 C 67.636719 95.929688 68.277344 95.769531 68.929688 95.640625 C 69.578125 95.507812 70.234375 95.414062 70.894531 95.347656 C 71.554688 95.28125 72.214844 95.25 72.878906 95.25 C 73.542969 95.25 74.203125 95.28125 74.863281 95.347656 C 75.523438 95.414062 76.179688 95.507812 76.828125 95.640625 C 77.480469 95.769531 78.121094 95.929688 78.757812 96.121094 C 79.390625 96.3125 80.015625 96.539062 80.628906 96.792969 C 81.242188 97.046875 81.839844 97.328125 82.425781 97.640625 C 83.007812 97.953125 83.578125 98.292969 84.128906 98.664062 C 84.679688 99.03125 85.210938 99.425781 85.726562 99.847656 C 86.238281 100.265625 86.730469 100.710938 87.199219 101.179688 C 87.667969 101.648438 88.113281 102.140625 88.53125 102.652344 C 88.953125 103.167969 89.347656 103.699219 89.714844 104.25 C 90.085938 104.800781 90.425781 105.371094 90.738281 105.953125 C 91.050781 106.539062 91.332031 107.136719 91.585938 107.75 C 91.839844 108.363281 92.0625 108.988281 92.257812 109.621094 C 92.449219 110.257812 92.609375 110.898438 92.738281 111.550781 C 92.867188 112.199219 92.964844 112.855469 93.03125 113.515625 C 93.097656 114.175781 93.128906 114.835938 93.128906 115.5 Z M 93.128906 115.5 " fill-opacity="1" fill-rule="nonzero"/></g><g fill="#000000" fill-opacity="1"><g transform="translate(63.586618, 198.450406)"><g><path d="M 15.890625 -52.84375 L 15.890625 0 L 3.84375 0 L 3.84375 -52.84375 Z M 15.890625 -52.84375 "/></g></g></g><g fill="#000000" fill-opacity="1"><g transform="translate(83.313881, 198.450406)"><g><path d="M 6.078125 -4.0625 C 3.003906 -7.414062 1.46875 -11.523438 1.46875 -16.390625 C 1.46875 -21.265625 3.003906 -25.382812 6.078125 -28.75 C 9.160156 -32.125 13.070312 -33.8125 17.8125 -33.8125 C 22.164062 -33.8125 25.75 -32.445312 28.5625 -29.71875 L 28.5625 -55.078125 L 39.90625 -55.078125 L 39.90625 0 L 28.6875 0 L 28.6875 -3.71875 L 28.5625 -3.71875 C 25.75 -0.601562 22.164062 0.953125 17.8125 0.953125 C 13.070312 0.953125 9.160156 -0.71875 6.078125 -4.0625 Z M 15.71875 -21.96875 C 14.25 -20.519531 13.515625 -18.660156 13.515625 -16.390625 C 13.515625 -14.128906 14.21875 -12.28125 15.625 -10.84375 C 17.03125 -9.414062 18.890625 -8.703125 21.203125 -8.703125 C 23.421875 -8.703125 25.242188 -9.425781 26.671875 -10.875 C 28.109375 -12.332031 28.828125 -14.171875 28.828125 -16.390625 C 28.828125 -18.660156 28.085938 -20.519531 26.609375 -21.96875 C 25.140625 -23.414062 23.335938 -24.140625 21.203125 -24.140625 C 19.023438 -24.140625 17.195312 -23.414062 15.71875 -21.96875 Z M 15.71875 -21.96875 "/></g></g></g><g fill="#000000" fill-opacity="1"><g transform="translate(127.059712, 198.450406)"><g><path d="M 37.078125 -14.859375 L 13.25 -14.859375 C 13.25 -12.554688 13.992188 -10.847656 15.484375 -9.734375 C 16.984375 -8.617188 18.609375 -8.0625 20.359375 -8.0625 C 22.203125 -8.0625 23.65625 -8.304688 24.71875 -8.796875 C 25.789062 -9.296875 27.007812 -10.269531 28.375 -11.71875 L 36.578125 -7.625 C 33.160156 -1.90625 27.476562 0.953125 19.53125 0.953125 C 14.582031 0.953125 10.332031 -0.738281 6.78125 -4.125 C 3.238281 -7.519531 1.46875 -11.609375 1.46875 -16.390625 C 1.46875 -21.171875 3.238281 -25.269531 6.78125 -28.6875 C 10.332031 -32.101562 14.582031 -33.8125 19.53125 -33.8125 C 24.738281 -33.8125 28.972656 -32.304688 32.234375 -29.296875 C 35.503906 -26.285156 37.140625 -21.984375 37.140625 -16.390625 C 37.140625 -15.628906 37.117188 -15.117188 37.078125 -14.859375 Z M 13.578125 -21.140625 L 26.0625 -21.140625 C 25.8125 -22.847656 25.140625 -24.160156 24.046875 -25.078125 C 22.960938 -25.992188 21.566406 -26.453125 19.859375 -26.453125 C 17.972656 -26.453125 16.472656 -25.957031 15.359375 -24.96875 C 14.253906 -23.988281 13.660156 -22.710938 13.578125 -21.140625 Z M 13.578125 -21.140625 "/></g></g></g><g fill="#000000" fill-opacity="1"><g transform="translate(165.681588, 198.450406)"><g><path d="M 3.84375 0 L 3.84375 -32.859375 L 15.171875 -32.859375 L 15.171875 -29.390625 L 15.3125 -29.390625 C 18.25 -32.335938 21.382812 -33.8125 24.71875 -33.8125 C 26.34375 -33.8125 27.953125 -33.597656 29.546875 -33.171875 C 31.148438 -32.742188 32.6875 -32.082031 34.15625 -31.1875 C 35.632812 -30.289062 36.832031 -29.019531 37.75 -27.375 C 38.664062 -25.738281 39.125 -23.828125 39.125 -21.640625 L 39.125 0 L 27.796875 0 L 27.796875 -18.578125 C 27.796875 -20.285156 27.25 -21.78125 26.15625 -23.0625 C 25.070312 -24.34375 23.65625 -24.984375 21.90625 -24.984375 C 20.195312 -24.984375 18.644531 -24.316406 17.25 -22.984375 C 15.863281 -21.660156 15.171875 -20.191406 15.171875 -18.578125 L 15.171875 0 Z M 3.84375 0 "/></g></g></g><g fill="#000000" fill-opacity="1"><g transform="translate(208.018338, 198.450406)"><g><path d="M 5.765625 -32.859375 L 5.765625 -45.09375 L 17.09375 -45.09375 L 17.09375 -32.859375 L 24.015625 -32.859375 L 24.015625 -24.203125 L 17.09375 -24.203125 L 17.09375 -13.765625 C 17.09375 -10.734375 17.945312 -9.21875 19.65625 -9.21875 C 20.082031 -9.21875 20.53125 -9.300781 21 -9.46875 C 21.476562 -9.644531 21.84375 -9.816406 22.09375 -9.984375 L 22.484375 -10.25 L 25.296875 -1.09375 C 22.859375 0.269531 20.082031 0.953125 16.96875 0.953125 C 14.832031 0.953125 12.992188 0.582031 11.453125 -0.15625 C 9.921875 -0.90625 8.757812 -1.910156 7.96875 -3.171875 C 7.175781 -4.429688 6.609375 -5.753906 6.265625 -7.140625 C 5.929688 -8.523438 5.765625 -10.007812 5.765625 -11.59375 L 5.765625 -24.203125 L 1.03125 -24.203125 L 1.03125 -32.859375 Z M 5.765625 -32.859375 "/></g></g></g><g fill="#000000" fill-opacity="1"><g transform="translate(233.317914, 198.450406)"><g><path d="M 14.53125 -32.859375 L 14.53125 -17.234375 C 14.53125 -13.984375 15.019531 -11.675781 16 -10.3125 C 16.988281 -8.945312 18.65625 -8.265625 21 -8.265625 C 23.351562 -8.265625 25.019531 -8.945312 26 -10.3125 C 26.976562 -11.675781 27.46875 -13.984375 27.46875 -17.234375 L 27.46875 -32.859375 L 38.8125 -32.859375 L 38.8125 -14.46875 C 38.8125 -9.007812 37.390625 -5.070312 34.546875 -2.65625 C 31.710938 -0.25 27.195312 0.953125 21 0.953125 C 14.8125 0.953125 10.296875 -0.25 7.453125 -2.65625 C 4.617188 -5.070312 3.203125 -9.007812 3.203125 -14.46875 L 3.203125 -32.859375 Z M 14.53125 -32.859375 "/></g></g></g><g fill="#000000" fill-opacity="1"><g transform="translate(275.334405, 198.450406)"><g><path d="M 18.125 -33.8125 C 20 -33.8125 21.851562 -33.597656 23.6875 -33.171875 C 25.53125 -32.742188 26.898438 -32.316406 27.796875 -31.890625 L 29.140625 -31.25 L 25.421875 -23.828125 C 22.859375 -25.191406 20.425781 -25.875 18.125 -25.875 C 16.84375 -25.875 15.9375 -25.734375 15.40625 -25.453125 C 14.875 -25.179688 14.609375 -24.660156 14.609375 -23.890625 C 14.609375 -23.722656 14.628906 -23.550781 14.671875 -23.375 C 14.710938 -23.207031 14.796875 -23.046875 14.921875 -22.890625 C 15.046875 -22.742188 15.160156 -22.617188 15.265625 -22.515625 C 15.378906 -22.410156 15.5625 -22.289062 15.8125 -22.15625 C 16.070312 -22.03125 16.273438 -21.9375 16.421875 -21.875 C 16.578125 -21.8125 16.820312 -21.710938 17.15625 -21.578125 C 17.5 -21.453125 17.753906 -21.359375 17.921875 -21.296875 C 18.097656 -21.234375 18.390625 -21.132812 18.796875 -21 C 19.203125 -20.875 19.507812 -20.789062 19.71875 -20.75 C 21.050781 -20.363281 22.207031 -19.9375 23.1875 -19.46875 C 24.164062 -19 25.195312 -18.359375 26.28125 -17.546875 C 27.375 -16.734375 28.21875 -15.707031 28.8125 -14.46875 C 29.414062 -13.238281 29.71875 -11.832031 29.71875 -10.25 C 29.71875 -2.78125 24.53125 0.953125 14.15625 0.953125 C 11.800781 0.953125 9.566406 0.59375 7.453125 -0.125 C 5.347656 -0.851562 3.820312 -1.582031 2.875 -2.3125 L 1.46875 -3.453125 L 6.078125 -11.203125 C 6.421875 -10.910156 6.867188 -10.5625 7.421875 -10.15625 C 7.984375 -9.75 8.988281 -9.191406 10.4375 -8.484375 C 11.894531 -7.773438 13.15625 -7.421875 14.21875 -7.421875 C 16.5625 -7.421875 17.734375 -8.210938 17.734375 -9.796875 C 17.734375 -10.523438 17.4375 -11.09375 16.84375 -11.5 C 16.25 -11.90625 15.234375 -12.363281 13.796875 -12.875 C 12.367188 -13.382812 11.25 -13.851562 10.4375 -14.28125 C 8.382812 -15.351562 6.757812 -16.5625 5.5625 -17.90625 C 4.375 -19.25 3.78125 -21.03125 3.78125 -23.25 C 3.78125 -26.582031 5.070312 -29.175781 7.65625 -31.03125 C 10.238281 -32.882812 13.726562 -33.8125 18.125 -33.8125 Z M 18.125 -33.8125 "/></g></g></g><g fill="#000000" fill-opacity="1"><g transform="translate(83.101404, 229.538078)"><g><path d="M 8.609375 0.171875 C 7.171875 0.171875 5.867188 -0.144531 4.703125 -0.78125 C 3.546875 -1.425781 2.632812 -2.304688 1.96875 -3.421875 C 1.3125 -4.546875 0.984375 -5.804688 0.984375 -7.203125 C 0.984375 -8.609375 1.3125 -9.867188 1.96875 -10.984375 C 2.632812 -12.109375 3.550781 -12.988281 4.71875 -13.625 C 5.882812 -14.257812 7.1875 -14.578125 8.625 -14.578125 C 9.75 -14.578125 10.78125 -14.390625 11.71875 -14.015625 C 12.65625 -13.640625 13.453125 -13.078125 14.109375 -12.328125 L 12.765625 -11.03125 C 11.679688 -12.175781 10.332031 -12.75 8.71875 -12.75 C 7.644531 -12.75 6.675781 -12.507812 5.8125 -12.03125 C 4.945312 -11.550781 4.269531 -10.882812 3.78125 -10.03125 C 3.289062 -9.1875 3.046875 -8.242188 3.046875 -7.203125 C 3.046875 -6.160156 3.289062 -5.21875 3.78125 -4.375 C 4.269531 -3.53125 4.945312 -2.867188 5.8125 -2.390625 C 6.675781 -1.910156 7.644531 -1.671875 8.71875 -1.671875 C 10.320312 -1.671875 11.671875 -2.242188 12.765625 -3.390625 L 14.109375 -2.09375 C 13.453125 -1.351562 12.648438 -0.789062 11.703125 -0.40625 C 10.765625 -0.0195312 9.734375 0.171875 8.609375 0.171875 Z M 8.609375 0.171875 "/></g></g></g><g fill="#000000" fill-opacity="1"><g transform="translate(101.439031, 229.538078)"><g><path d="M 6.546875 0.125 C 5.460938 0.125 4.488281 -0.113281 3.625 -0.59375 C 2.757812 -1.070312 2.082031 -1.734375 1.59375 -2.578125 C 1.101562 -3.421875 0.859375 -4.378906 0.859375 -5.453125 C 0.859375 -6.523438 1.101562 -7.484375 1.59375 -8.328125 C 2.082031 -9.171875 2.757812 -9.828125 3.625 -10.296875 C 4.488281 -10.773438 5.460938 -11.015625 6.546875 -11.015625 C 7.628906 -11.015625 8.597656 -10.773438 9.453125 -10.296875 C 10.316406 -9.828125 10.992188 -9.171875 11.484375 -8.328125 C 11.972656 -7.484375 12.21875 -6.523438 12.21875 -5.453125 C 12.21875 -4.378906 11.972656 -3.421875 11.484375 -2.578125 C 10.992188 -1.734375 10.316406 -1.070312 9.453125 -0.59375 C 8.597656 -0.113281 7.628906 0.125 6.546875 0.125 Z M 6.546875 -1.609375 C 7.242188 -1.609375 7.867188 -1.769531 8.421875 -2.09375 C 8.984375 -2.414062 9.421875 -2.867188 9.734375 -3.453125 C 10.054688 -4.035156 10.21875 -4.703125 10.21875 -5.453125 C 10.21875 -6.210938 10.054688 -6.882812 9.734375 -7.46875 C 9.421875 -8.050781 8.984375 -8.5 8.421875 -8.8125 C 7.867188 -9.125 7.242188 -9.28125 6.546875 -9.28125 C 5.847656 -9.28125 5.21875 -9.125 4.65625 -8.8125 C 4.101562 -8.5 3.664062 -8.050781 3.34375 -7.46875 C 3.019531 -6.882812 2.859375 -6.210938 2.859375 -5.453125 C 2.859375 -4.703125 3.019531 -4.035156 3.34375 -3.453125 C 3.664062 -2.867188 4.101562 -2.414062 4.65625 -2.09375 C 5.21875 -1.769531 5.847656 -1.609375 6.546875 -1.609375 Z M 6.546875 -1.609375 "/></g></g></g><g fill="#000000" fill-opacity="1"><g transform="translate(117.965797, 229.538078)"><g><path d="M 7.703125 -11.015625 C 9.085938 -11.015625 10.1875 -10.613281 11 -9.8125 C 11.820312 -9.007812 12.234375 -7.832031 12.234375 -6.28125 L 12.234375 0 L 10.25 0 L 10.25 -6.046875 C 10.25 -7.109375 9.992188 -7.90625 9.484375 -8.4375 C 8.984375 -8.976562 8.257812 -9.25 7.3125 -9.25 C 6.238281 -9.25 5.390625 -8.9375 4.765625 -8.3125 C 4.148438 -7.6875 3.84375 -6.789062 3.84375 -5.625 L 3.84375 0 L 1.875 0 L 1.875 -10.921875 L 3.765625 -10.921875 L 3.765625 -9.265625 C 4.160156 -9.828125 4.695312 -10.257812 5.375 -10.5625 C 6.0625 -10.863281 6.835938 -11.015625 7.703125 -11.015625 Z M 7.703125 -11.015625 "/></g></g></g><g fill="#000000" fill-opacity="1"><g transform="translate(135.439156, 229.538078)"><g><path d="M 5 0.125 C 4.113281 0.125 3.253906 0.00390625 2.421875 -0.234375 C 1.597656 -0.472656 0.957031 -0.78125 0.5 -1.15625 L 1.3125 -2.71875 C 1.789062 -2.375 2.375 -2.097656 3.0625 -1.890625 C 3.75 -1.679688 4.441406 -1.578125 5.140625 -1.578125 C 6.878906 -1.578125 7.75 -2.070312 7.75 -3.0625 C 7.75 -3.394531 7.628906 -3.65625 7.390625 -3.84375 C 7.160156 -4.039062 6.867188 -4.179688 6.515625 -4.265625 C 6.171875 -4.359375 5.675781 -4.460938 5.03125 -4.578125 C 4.144531 -4.710938 3.421875 -4.867188 2.859375 -5.046875 C 2.304688 -5.222656 1.832031 -5.523438 1.4375 -5.953125 C 1.039062 -6.378906 0.84375 -6.976562 0.84375 -7.75 C 0.84375 -8.726562 1.253906 -9.515625 2.078125 -10.109375 C 2.898438 -10.710938 4.003906 -11.015625 5.390625 -11.015625 C 6.117188 -11.015625 6.847656 -10.925781 7.578125 -10.75 C 8.304688 -10.570312 8.90625 -10.332031 9.375 -10.03125 L 8.53125 -8.46875 C 7.632812 -9.039062 6.582031 -9.328125 5.375 -9.328125 C 4.539062 -9.328125 3.898438 -9.1875 3.453125 -8.90625 C 3.015625 -8.632812 2.796875 -8.273438 2.796875 -7.828125 C 2.796875 -7.472656 2.921875 -7.191406 3.171875 -6.984375 C 3.421875 -6.773438 3.726562 -6.625 4.09375 -6.53125 C 4.457031 -6.4375 4.96875 -6.328125 5.625 -6.203125 C 6.5 -6.046875 7.207031 -5.878906 7.75 -5.703125 C 8.289062 -5.535156 8.753906 -5.242188 9.140625 -4.828125 C 9.523438 -4.421875 9.71875 -3.847656 9.71875 -3.109375 C 9.71875 -2.117188 9.296875 -1.332031 8.453125 -0.75 C 7.609375 -0.164062 6.457031 0.125 5 0.125 Z M 5 0.125 "/></g></g></g><g fill="#000000" fill-opacity="1"><g transform="translate(149.208485, 229.538078)"><g><path d="M 12.046875 -10.921875 L 12.046875 0 L 10.171875 0 L 10.171875 -1.640625 C 9.773438 -1.078125 9.25 -0.640625 8.59375 -0.328125 C 7.945312 -0.0234375 7.238281 0.125 6.46875 0.125 C 5.007812 0.125 3.859375 -0.273438 3.015625 -1.078125 C 2.179688 -1.878906 1.765625 -3.066406 1.765625 -4.640625 L 1.765625 -10.921875 L 3.75 -10.921875 L 3.75 -4.859375 C 3.75 -3.804688 4 -3.003906 4.5 -2.453125 C 5.007812 -1.910156 5.738281 -1.640625 6.6875 -1.640625 C 7.738281 -1.640625 8.5625 -1.957031 9.15625 -2.59375 C 9.757812 -3.226562 10.0625 -4.117188 10.0625 -5.265625 L 10.0625 -10.921875 Z M 12.046875 -10.921875 "/></g></g></g><g fill="#000000" fill-opacity="1"><g transform="translate(166.599514, 229.538078)"><g><path d="M 1.875 -15.28125 L 3.84375 -15.28125 L 3.84375 0 L 1.875 0 Z M 1.875 -15.28125 "/></g></g></g><g fill="#000000" fill-opacity="1"><g transform="translate(175.80053, 229.538078)"><g><path d="M 8.015625 -0.640625 C 7.722656 -0.390625 7.363281 -0.195312 6.9375 -0.0625 C 6.507812 0.0625 6.070312 0.125 5.625 0.125 C 4.519531 0.125 3.664062 -0.164062 3.0625 -0.75 C 2.457031 -1.34375 2.15625 -2.191406 2.15625 -3.296875 L 2.15625 -9.28125 L 0.3125 -9.28125 L 0.3125 -10.921875 L 2.15625 -10.921875 L 2.15625 -13.296875 L 4.140625 -13.296875 L 4.140625 -10.921875 L 7.265625 -10.921875 L 7.265625 -9.28125 L 4.140625 -9.28125 L 4.140625 -3.375 C 4.140625 -2.78125 4.285156 -2.328125 4.578125 -2.015625 C 4.878906 -1.703125 5.300781 -1.546875 5.84375 -1.546875 C 6.445312 -1.546875 6.960938 -1.71875 7.390625 -2.0625 Z M 8.015625 -0.640625 "/></g></g></g><g fill="#000000" fill-opacity="1"><g transform="translate(187.779568, 229.538078)"><g><path d="M 1.875 -10.921875 L 3.84375 -10.921875 L 3.84375 0 L 1.875 0 Z M 2.875 -13.015625 C 2.488281 -13.015625 2.164062 -13.132812 1.90625 -13.375 C 1.65625 -13.625 1.53125 -13.929688 1.53125 -14.296875 C 1.53125 -14.648438 1.65625 -14.953125 1.90625 -15.203125 C 2.164062 -15.460938 2.488281 -15.59375 2.875 -15.59375 C 3.257812 -15.59375 3.578125 -15.472656 3.828125 -15.234375 C 4.078125 -14.992188 4.203125 -14.691406 4.203125 -14.328125 C 4.203125 -13.960938 4.078125 -13.648438 3.828125 -13.390625 C 3.578125 -13.140625 3.257812 -13.015625 2.875 -13.015625 Z M 2.875 -13.015625 "/></g></g></g><g fill="#000000" fill-opacity="1"><g transform="translate(196.980583, 229.538078)"><g><path d="M 7.703125 -11.015625 C 9.085938 -11.015625 10.1875 -10.613281 11 -9.8125 C 11.820312 -9.007812 12.234375 -7.832031 12.234375 -6.28125 L 12.234375 0 L 10.25 0 L 10.25 -6.046875 C 10.25 -7.109375 9.992188 -7.90625 9.484375 -8.4375 C 8.984375 -8.976562 8.257812 -9.25 7.3125 -9.25 C 6.238281 -9.25 5.390625 -8.9375 4.765625 -8.3125 C 4.148438 -7.6875 3.84375 -6.789062 3.84375 -5.625 L 3.84375 0 L 1.875 0 L 1.875 -10.921875 L 3.765625 -10.921875 L 3.765625 -9.265625 C 4.160156 -9.828125 4.695312 -10.257812 5.375 -10.5625 C 6.0625 -10.863281 6.835938 -11.015625 7.703125 -11.015625 Z M 7.703125 -11.015625 "/></g></g></g><g fill="#000000" fill-opacity="1"><g transform="translate(214.453947, 229.538078)"><g><path d="M 12.3125 -10.921875 L 12.3125 -1.484375 C 12.3125 0.421875 11.835938 1.832031 10.890625 2.75 C 9.941406 3.664062 8.53125 4.125 6.65625 4.125 C 5.625 4.125 4.640625 3.984375 3.703125 3.703125 C 2.773438 3.421875 2.019531 3.015625 1.4375 2.484375 L 2.390625 0.96875 C 2.898438 1.40625 3.523438 1.75 4.265625 2 C 5.015625 2.257812 5.789062 2.390625 6.59375 2.390625 C 7.863281 2.390625 8.804688 2.085938 9.421875 1.484375 C 10.035156 0.878906 10.34375 -0.0390625 10.34375 -1.28125 L 10.34375 -2.140625 C 9.875 -1.578125 9.296875 -1.15625 8.609375 -0.875 C 7.929688 -0.59375 7.195312 -0.453125 6.40625 -0.453125 C 5.363281 -0.453125 4.421875 -0.675781 3.578125 -1.125 C 2.734375 -1.570312 2.066406 -2.195312 1.578125 -3 C 1.097656 -3.800781 0.859375 -4.71875 0.859375 -5.75 C 0.859375 -6.78125 1.097656 -7.695312 1.578125 -8.5 C 2.066406 -9.300781 2.734375 -9.921875 3.578125 -10.359375 C 4.421875 -10.796875 5.363281 -11.015625 6.40625 -11.015625 C 7.226562 -11.015625 7.992188 -10.863281 8.703125 -10.5625 C 9.410156 -10.257812 9.988281 -9.8125 10.4375 -9.21875 L 10.4375 -10.921875 Z M 6.625 -2.1875 C 7.34375 -2.1875 7.984375 -2.335938 8.546875 -2.640625 C 9.117188 -2.941406 9.566406 -3.363281 9.890625 -3.90625 C 10.210938 -4.445312 10.375 -5.0625 10.375 -5.75 C 10.375 -6.800781 10.023438 -7.648438 9.328125 -8.296875 C 8.628906 -8.953125 7.726562 -9.28125 6.625 -9.28125 C 5.519531 -9.28125 4.613281 -8.953125 3.90625 -8.296875 C 3.207031 -7.648438 2.859375 -6.800781 2.859375 -5.75 C 2.859375 -5.0625 3.019531 -4.445312 3.34375 -3.90625 C 3.664062 -3.363281 4.113281 -2.941406 4.6875 -2.640625 C 5.257812 -2.335938 5.90625 -2.1875 6.625 -2.1875 Z M 6.625 -2.1875 "/></g></g></g><g fill="#000000" fill-opacity="1"><g transform="translate(232.112499, 229.538078)"><g/></g></g><g fill="#000000" fill-opacity="1"><g transform="translate(241.107751, 229.538078)"><g><path d="M 2.15625 -14.421875 L 4.21875 -14.421875 L 4.21875 -1.796875 L 12.03125 -1.796875 L 12.03125 0 L 2.15625 0 Z M 2.15625 -14.421875 "/></g></g></g><g fill="#000000" fill-opacity="1"><g transform="translate(256.790819, 229.538078)"><g><path d="M 2.15625 -14.421875 L 4.21875 -14.421875 L 4.21875 -1.796875 L 12.03125 -1.796875 L 12.03125 0 L 2.15625 0 Z M 2.15625 -14.421875 "/></g></g></g><g fill="#000000" fill-opacity="1"><g transform="translate(272.473878, 229.538078)"><g><path d="M 8.609375 0.171875 C 7.171875 0.171875 5.867188 -0.144531 4.703125 -0.78125 C 3.546875 -1.425781 2.632812 -2.304688 1.96875 -3.421875 C 1.3125 -4.546875 0.984375 -5.804688 0.984375 -7.203125 C 0.984375 -8.609375 1.3125 -9.867188 1.96875 -10.984375 C 2.632812 -12.109375 3.550781 -12.988281 4.71875 -13.625 C 5.882812 -14.257812 7.1875 -14.578125 8.625 -14.578125 C 9.75 -14.578125 10.78125 -14.390625 11.71875 -14.015625 C 12.65625 -13.640625 13.453125 -13.078125 14.109375 -12.328125 L 12.765625 -11.03125 C 11.679688 -12.175781 10.332031 -12.75 8.71875 -12.75 C 7.644531 -12.75 6.675781 -12.507812 5.8125 -12.03125 C 4.945312 -11.550781 4.269531 -10.882812 3.78125 -10.03125 C 3.289062 -9.1875 3.046875 -8.242188 3.046875 -7.203125 C 3.046875 -6.160156 3.289062 -5.21875 3.78125 -4.375 C 4.269531 -3.53125 4.945312 -2.867188 5.8125 -2.390625 C 6.675781 -1.910156 7.644531 -1.671875 8.71875 -1.671875 C 10.320312 -1.671875 11.671875 -2.242188 12.765625 -3.390625 L 14.109375 -2.09375 C 13.453125 -1.351562 12.648438 -0.789062 11.703125 -0.40625 C 10.765625 -0.0195312 9.734375 0.171875 8.609375 0.171875 Z M 8.609375 0.171875 "/></g></g></g></svg>